<?xml version="1.0" standalone="no"?>
<!DOCTYPE svg PUBLIC "-//W3C//DTD SVG 20010904//EN"
 "http://www.w3.org/TR/2001/REC-SVG-20010904/DTD/svg10.dtd">
<svg version="1.0" xmlns="http://www.w3.org/2000/svg"
 width="500.000000pt" height="500.000000pt" viewBox="0 0 500.000000 500.000000"
 preserveAspectRatio="xMidYMid meet">

<g transform="translate(0.000000,500.000000) scale(0.100000,-0.100000)"
fill="#000000" stroke="none">
<path d="M1970 2631 c-46 -25 -66 -48 -77 -91 -33 -124 96 -229 213 -174 96
46 112 186 28 251 -46 34 -115 41 -164 14z m127 -17 c47 -23 65 -55 65 -113 0
-57 -21 -93 -69 -116 -40 -19 -66 -19 -109 1 -95 45 -97 181 -3 227 43 21 72
21 116 1z"/>
<path d="M1052 2500 c0 -87 3 -135 8 -120 4 14 8 68 8 120 0 52 -4 106 -8 120
-5 15 -8 -33 -8 -120z"/>
<path d="M1190 2549 c0 -103 10 -112 19 -19 l6 61 89 -116 c49 -64 94 -114
100 -112 13 4 21 232 9 256 -4 9 -10 -37 -13 -104 l-5 -120 -90 119 c-50 66
-96 121 -103 124 -9 3 -12 -20 -12 -89z"/>
<path d="M1540 2550 c0 -49 4 -90 9 -90 5 0 13 28 18 62 l8 62 59 -79 c89
-118 128 -158 137 -143 12 18 11 266 -1 273 -14 9 -20 -27 -23 -140 l-2 -100
-54 75 c-72 99 -131 170 -142 170 -5 0 -9 -40 -9 -90z"/>
<path d="M2270 2637 c0 -2 22 -59 50 -126 48 -120 65 -151 80 -151 14 0 125
268 115 278 -9 9 -20 -12 -66 -126 -23 -56 -45 -104 -49 -107 -4 -2 -31 49
-60 115 -29 66 -56 120 -61 120 -5 0 -9 -1 -9 -3z"/>
<path d="M2650 2563 c-56 -133 -80 -203 -71 -203 8 0 40 66 83 175 13 33 28
60 33 60 5 0 28 -46 52 -103 67 -160 100 -197 42 -47 -50 131 -81 195 -94 195
-7 0 -28 -35 -45 -77z"/>
<path d="M2933 2633 c26 -2 67 -2 90 0 23 2 2 3 -48 3 -49 0 -68 -1 -42 -3z"/>
<path d="M3196 2624 c-9 -24 -7 -237 3 -252 11 -18 21 59 21 169 0 83 -10 119
-24 83z"/>
<path d="M3361 2588 c75 -191 98 -236 116 -225 14 9 117 266 110 273 -7 7 -43
-65 -83 -163 -16 -40 -31 -73 -35 -73 -3 0 -27 53 -55 117 -27 64 -55 118 -62
121 -8 2 -6 -14 9 -50z"/>
<path d="M3768 2633 c23 -2 61 -2 85 0 23 2 4 4 -43 4 -47 0 -66 -2 -42 -4z"/>
<path d="M2966 2539 c-8 -44 -6 -140 4 -164 6 -13 9 18 9 88 1 59 -1 107 -3
107 -2 0 -6 -14 -10 -31z"/>
<path d="M3725 2500 c7 -12 109 -12 145 0 17 5 -4 8 -63 9 -57 1 -86 -3 -82
-9z"/>
<path d="M3726 2371 c-7 -11 127 -24 155 -16 17 6 19 9 8 16 -18 11 -156 12
-163 0z"/>
<path d="M1957 2212 c-23 -25 -22 -75 2 -96 22 -20 92 -19 98 1 3 9 -3 9 -26
0 -25 -9 -33 -8 -50 8 -12 10 -21 28 -21 40 0 12 9 30 21 40 17 16 25 17 50 8
23 -9 29 -9 26 0 -7 21 -81 20 -100 -1z"/>
<path d="M2780 2220 c0 -5 4 -10 9 -10 6 0 13 5 16 10 3 6 -1 10 -9 10 -9 0
-16 -4 -16 -10z"/>
<path d="M2398 2193 c-5 -29 4 -103 13 -103 5 0 9 18 9 39 0 22 5 42 13 44 10
4 10 6 0 6 -7 1 -13 8 -13 16 0 20 -18 19 -22 -2z"/>
<path d="M2728 2193 c-5 -29 4 -103 13 -103 5 0 9 18 9 39 0 22 5 42 13 44 10
4 10 6 0 6 -7 1 -13 8 -13 16 0 20 -18 19 -22 -2z"/>
<path d="M2092 2168 c-30 -30 -3 -72 44 -66 34 4 53 31 38 56 -13 21 -64 28
-82 10z m58 -13 c10 -12 10 -18 0 -30 -24 -29 -58 -7 -44 30 4 8 12 15 19 15
7 0 18 -7 25 -15z"/>
<path d="M2200 2135 c0 -54 18 -60 22 -8 2 27 8 39 21 41 13 3 17 -4 17 -32 0
-34 13 -55 24 -38 3 5 3 25 -1 45 -5 35 -8 37 -44 37 l-39 0 0 -45z"/>
<path d="M2314 2168 c-4 -6 2 -19 14 -29 27 -22 28 -32 2 -24 -11 4 -20 2 -20
-4 0 -6 13 -11 29 -11 39 0 49 27 16 42 -30 13 -34 32 -5 23 11 -4 20 -2 20 4
0 15 -47 14 -56 -1z"/>
<path d="M2452 2138 c4 -53 22 -57 26 -6 2 24 9 38 20 41 9 3 2 5 -16 6 -33 1
-33 1 -30 -41z"/>
<path d="M2520 2153 c0 -39 14 -55 45 -55 31 0 45 16 45 55 0 38 -18 34 -22
-5 -2 -22 -9 -34 -20 -36 -15 -3 -18 4 -18 32 0 25 -4 36 -15 36 -10 0 -15
-10 -15 -27z"/>
<path d="M2640 2165 c-27 -32 19 -89 54 -67 6 3 0 9 -14 12 -34 8 -36 55 -2
54 12 0 22 3 22 8 0 14 -47 9 -60 -7z"/>
<path d="M2782 2138 c2 -24 8 -43 13 -43 6 0 11 19 13 43 3 33 0 42 -13 42
-13 0 -16 -9 -13 -42z"/>
<path d="M2842 2168 c-18 -18 -14 -45 9 -61 40 -29 92 11 69 53 -12 23 -59 27
-78 8z m57 -17 c8 -14 7 -22 -4 -31 -19 -16 -45 -6 -45 18 0 36 33 45 49 13z"/>
<path d="M2950 2135 c0 -54 18 -60 22 -8 2 27 8 39 21 41 13 3 17 -4 17 -32 0
-19 5 -38 10 -41 6 -4 10 12 10 39 l0 46 -40 0 -40 0 0 -45z"/>
</g>
</svg>
